<svg xmlns="http://www.w3.org/2000/svg" xmlns:xlink="http://www.w3.org/1999/xlink" xml:lang="en" height="355.5pt" width="661.85pt" viewBox="19.550000000000004 -315.29999999999995 661.85 355.5" style="background-color:white;"><path d="M 50.4,-223.20000000000002 L 50.4,-243.9 L 144,-243.9 L 144,-202.5 L 50.4,-202.5 L 50.4,-223.2" style="stroke:black;fill:none;stroke-width:2.0;stroke-dasharray:-;stroke-linecap:round;stroke-linejoin:round;" /><path d="M 201.6,-223.20000000000002 L 201.6,-243.9 L 316.8,-243.9 L 316.8,-202.5 L 201.6,-202.5 L 201.6,-223.2" style="stroke:black;fill:none;stroke-width:2.0;stroke-dasharray:-;stroke-linecap:round;stroke-linejoin:round;" /><path d="M 410.40000000000003,-223.20000000000002 L 410.4,-247.5 L 540,-247.5 L 540,-198.9 L 410.4,-198.9 L 410.4,-223.2" style="stroke:black;fill:none;stroke-width:2.0;stroke-dasharray:-;stroke-linecap:round;stroke-linejoin:round;" /><path d="M 576.0,-223.20000000000002 L 576,-243.9 L 676.8,-243.9 L 676.8,-202.5 L 576,-202.5 L 576,-223.2" style="stroke:black;fill:none;stroke-width:2.0;stroke-dasharray:-;stroke-linecap:round;stroke-linejoin:round;" /><path d="M 144.0,-223.20000000000002 L 172.8,-223.2 L 192.6,-223.2" style="stroke:black;fill:none;stroke-width:2.0;stroke-dasharray:-;stroke-linecap:round;stroke-linejoin:round;" /><path d="M 199.6 -223.2 L 192.6 -220.5 L 192.6 -225.9 Z" style="stroke:black;fill:black;stroke-linecap:butt;stroke-linejoin:miter;" /><path d="M 316.8,-223.20000000000002 L 363.6,-223.2 L 401.4,-223.2" style="stroke:black;fill:none;stroke-width:2.0;stroke-dasharray:-;stroke-linecap:round;stroke-linejoin:round;" /><path d="M 408.4 -223.2 L 401.4 -220.5 L 401.4 -225.9 Z" style="stroke:black;fill:black;stroke-linecap:butt;stroke-linejoin:miter;" /><path d="M 540.0,-223.20000000000002 L 558,-223.2 L 567,-223.2" style="stroke:black;fill:none;stroke-width:2.0;stroke-dasharray:-;stroke-linecap:round;stroke-linejoin:round;" /><path d="M 574 -223.2 L 567 -220.5 L 567 -225.9 Z" style="stroke:black;fill:black;stroke-linecap:butt;stroke-linejoin:miter;" /><path d="M 201.6,-120.60000000000001 L 201.6,-142.2 L 316.8,-142.2 L 316.8,-99 L 201.6,-99 L 201.6,-120.6" style="stroke:black;fill:none;stroke-width:2.0;stroke-dasharray:-;stroke-linecap:round;stroke-linejoin:round;" /><path d="M 360.0,-120.60000000000001 L 360,-142.2 L 460.8,-142.2 L 460.8,-99 L 360,-99 L 360,-120.6" style="stroke:black;fill:none;stroke-width:2.0;stroke-dasharray:-;stroke-linecap:round;stroke-linejoin:round;" /><path d="M 259.2,-202.5 L 259.2,-172.35 L 259.2,-151.2" style="stroke:black;fill:none;stroke-width:2.0;stroke-dasharray:-;stroke-linecap:round;stroke-linejoin:round;" /><path d="M 259.2 -144.2 L 256.5 -151.2 L 261.9 -151.2 Z" style="stroke:black;fill:black;stroke-linecap:butt;stroke-linejoin:miter;" /><path d="M 316.8,-120.60000000000001 L 338.4,-120.6 L 351,-120.6" style="stroke:black;fill:none;stroke-width:2.0;stroke-dasharray:-;stroke-linecap:round;stroke-linejoin:round;" /><path d="M 358 -120.6 L 351 -117.9 L 351 -123.3 Z" style="stroke:black;fill:black;stroke-linecap:butt;stroke-linejoin:miter;" /><path d="M 360.0,-5.3999999999999995 L 360,-26.1 L 460.8,-26.1 L 460.8,15.3 L 360,15.3 L 360,-5.4" style="stroke:black;fill:none;stroke-width:2.0;stroke-dasharray:-;stroke-linecap:round;stroke-linejoin:round;" /><path d="M 496.8,-5.3999999999999995 L 496.8,-26.1 L 590.4,-26.1 L 590.4,15.3 L 496.8,15.3 L 496.8,-5.4" style="stroke:black;fill:none;stroke-width:2.0;stroke-dasharray:-;stroke-linecap:round;stroke-linejoin:round;" /><path d="M 410.40000000000003,-99.0 L 410.4,-62.55 L 410.4,-35.1" style="stroke:black;fill:none;stroke-width:2.0;stroke-dasharray:-;stroke-linecap:round;stroke-linejoin:round;" /><path d="M 410.4 -28.1 L 407.7 -35.1 L 413.1 -35.1 Z" style="stroke:black;fill:black;stroke-linecap:butt;stroke-linejoin:miter;" /><path d="M 460.8,-5.3999999999999995 L 478.8,-5.4 L 487.8,-5.4" style="stroke:black;fill:none;stroke-width:2.0;stroke-dasharray:-;stroke-linecap:round;stroke-linejoin:round;" /><path d="M 494.8 -5.4 L 487.8 -2.7 L 487.8 -8.1 Z" style="stroke:black;fill:black;stroke-linecap:butt;stroke-linejoin:miter;" /><path d="M 543.6,-26.099999999999998 L 475.2,-26.1 L 475.2,-189.9" style="stroke:black;fill:none;stroke-width:2.0;stroke-dasharray:-;stroke-linecap:round;stroke-linejoin:round;" /><path d="M 475.2 -196.9 L 477.9 -189.9 L 472.5 -189.9 Z" style="stroke:black;fill:black;stroke-linecap:butt;stroke-linejoin:miter;" /><text x="313.2" y="-317.2" dominant-baseline="central" fill="black" font-size="13" font-family="sans" text-anchor="middle"><tspan x="313.2" dy="13">Архитектура питания и управления</tspan></text><text x="54.0" y="-278.2" dominant-baseline="central" fill="#b71c1c" font-size="10" font-family="sans" text-anchor="middle"><tspan x="54.0" dy="10">сеть 230 VAC</tspan></text><text x="277.2" y="-278.2" dominant-baseline="central" fill="#1565c0" font-size="10" font-family="sans" text-anchor="middle"><tspan x="277.2" dy="10">шина 12 V</tspan></text><text x="500.40000000000003" y="-278.2" dominant-baseline="central" fill="#6a1b9a" font-size="10" font-family="sans" text-anchor="middle"><tspan x="500.40000000000003" dy="10">питание LED</tspan></text><text x="97.2" y="-234.20000000000002" dominant-baseline="central" fill="black" font-size="11" font-family="sans" text-anchor="middle"><tspan x="97.2" dy="11">230 VAC</tspan></text><text x="259.2" y="-234.20000000000002" dominant-baseline="central" fill="black" font-size="11" font-family="sans" text-anchor="middle"><tspan x="259.2" dy="11">LPV-35-12</tspan></text><text x="475.20000000000005" y="-234.20000000000002" dominant-baseline="central" fill="black" font-size="11" font-family="sans" text-anchor="middle"><tspan x="475.20000000000005" dy="11">LDH-25-350W</tspan></text><text x="626.4" y="-239.70000000000002" dominant-baseline="central" fill="black" font-size="11" font-family="sans" text-anchor="middle"><tspan x="626.4" dy="11">LED</tspan><tspan x="626.4" dy="11">~36 V / 350 mA</tspan></text><text x="363.6" y="-242.20000000000002" dominant-baseline="ideographic" fill="black" font-size="10" font-family="sans" text-anchor="middle"><tspan x="363.6" dy="10">12 V</tspan></text><text x="205.2" y="-177.39999999999998" dominant-baseline="central" fill="#2e7d32" font-size="10" font-family="sans" text-anchor="middle"><tspan x="205.2" dy="10">контроллер 5 V</tspan></text><text x="259.2" y="-137.10000000000002" dominant-baseline="central" fill="black" font-size="11" font-family="sans" text-anchor="middle"><tspan x="259.2" dy="11">DC/DC buck</tspan><tspan x="259.2" dy="11">5 V</tspan></text><text x="410.40000000000003" y="-131.60000000000002" dominant-baseline="central" fill="black" font-size="11" font-family="sans" text-anchor="middle"><tspan x="410.40000000000003" dy="11">ESP32-C3</tspan></text><text x="338.40000000000003" y="-139.6" dominant-baseline="ideographic" fill="black" font-size="10" font-family="sans" text-anchor="middle"><tspan x="338.40000000000003" dy="10">5 V</tspan></text><text x="410.40000000000003" y="-16.4" dominant-baseline="central" fill="black" font-size="11" font-family="sans" text-anchor="middle"><tspan x="410.40000000000003" dy="11">PC817</tspan></text><text x="543.6" y="-16.4" dominant-baseline="central" fill="black" font-size="11" font-family="sans" text-anchor="middle"><tspan x="543.6" dy="11">BC548</tspan></text><text x="432.0" y="20.599999999999998" dominant-baseline="central" fill="#ef6c00" font-size="10" font-family="sans" text-anchor="middle"><tspan x="432.0" dy="10">PWM / DIM</tspan></text><text x="388.8" y="-68.94999999999999" dominant-baseline="central" fill="black" font-size="10" font-family="sans" text-anchor="middle"><tspan x="388.8" dy="10">PWM</tspan></text><text x="511.20000000000005" y="-126.10000000000001" dominant-baseline="central" fill="black" font-size="10" font-family="sans" text-anchor="middle"><tspan x="511.20000000000005" dy="10">DIM+/DIM−</tspan></text></svg>